<mxfile host="app.diagrams.net" agent="Mozilla/5.0 (Macintosh; Intel Mac OS X 10.15; rv:136.0) Gecko/20100101 Firefox/136.0" version="26.1.1">
  <diagram name="Page-1" id="FBkxHMepI6tSABWe1Jr1">
    <mxGraphModel dx="1434" dy="686" grid="1" gridSize="10" guides="1" tooltips="1" connect="1" arrows="1" fold="1" page="1" pageScale="1" pageWidth="1920" pageHeight="1200" math="0" shadow="0">
      <root>
        <mxCell id="0" />
        <mxCell id="1" parent="0" />
        <mxCell id="lquwiNytcV9NUcsQfciu-1" value="" style="rounded=1;whiteSpace=wrap;html=1;fillColor=#dae8fc;strokeColor=#6c8ebf;" vertex="1" parent="1">
          <mxGeometry x="50" y="30" width="360" height="590" as="geometry" />
        </mxCell>
        <mxCell id="lquwiNytcV9NUcsQfciu-116" value="" style="edgeStyle=orthogonalEdgeStyle;rounded=0;orthogonalLoop=1;jettySize=auto;html=1;" edge="1" parent="1" source="lquwiNytcV9NUcsQfciu-3" target="lquwiNytcV9NUcsQfciu-108">
          <mxGeometry relative="1" as="geometry">
            <Array as="points">
              <mxPoint x="1150" y="174" />
              <mxPoint x="1150" y="325" />
            </Array>
          </mxGeometry>
        </mxCell>
        <mxCell id="lquwiNytcV9NUcsQfciu-3" value="" style="rounded=1;whiteSpace=wrap;html=1;fillColor=#dae8fc;strokeColor=#6c8ebf;" vertex="1" parent="1">
          <mxGeometry x="800" y="39" width="340" height="270" as="geometry" />
        </mxCell>
        <mxCell id="lquwiNytcV9NUcsQfciu-82" value="" style="edgeStyle=orthogonalEdgeStyle;rounded=0;orthogonalLoop=1;jettySize=auto;html=1;exitX=-0.001;exitY=0.469;exitDx=0;exitDy=0;endArrow=none;startFill=1;startArrow=classic;exitPerimeter=0;" edge="1" parent="1" source="lquwiNytcV9NUcsQfciu-4">
          <mxGeometry relative="1" as="geometry">
            <mxPoint x="400" y="330" as="targetPoint" />
            <Array as="points">
              <mxPoint x="780" y="461" />
              <mxPoint x="780" y="540" />
              <mxPoint x="400" y="540" />
            </Array>
          </mxGeometry>
        </mxCell>
        <mxCell id="lquwiNytcV9NUcsQfciu-115" value="" style="edgeStyle=orthogonalEdgeStyle;rounded=0;orthogonalLoop=1;jettySize=auto;html=1;" edge="1" parent="1" source="lquwiNytcV9NUcsQfciu-4" target="lquwiNytcV9NUcsQfciu-108">
          <mxGeometry relative="1" as="geometry">
            <Array as="points">
              <mxPoint x="1150" y="470" />
              <mxPoint x="1150" y="325" />
            </Array>
          </mxGeometry>
        </mxCell>
        <mxCell id="lquwiNytcV9NUcsQfciu-4" value="" style="rounded=1;whiteSpace=wrap;html=1;fillColor=#dae8fc;strokeColor=#6c8ebf;" vertex="1" parent="1">
          <mxGeometry x="800" y="329.38" width="340" height="280.62" as="geometry" />
        </mxCell>
        <mxCell id="lquwiNytcV9NUcsQfciu-5" value="&lt;font face=&quot;Courier New&quot;&gt;Basic Protocol 1&lt;/font&gt;" style="rounded=1;whiteSpace=wrap;html=1;fillColor=#b1ddf0;strokeColor=#10739e;" vertex="1" parent="1">
          <mxGeometry x="50" y="20" width="120" height="30" as="geometry" />
        </mxCell>
        <mxCell id="lquwiNytcV9NUcsQfciu-9" value="" style="rounded=1;whiteSpace=wrap;html=1;fillColor=#bac8d3;strokeColor=#23445d;" vertex="1" parent="1">
          <mxGeometry x="75" y="60" width="310" height="110" as="geometry" />
        </mxCell>
        <mxCell id="lquwiNytcV9NUcsQfciu-8" value="&lt;font face=&quot;Courier New&quot;&gt;Sinai2024.ipynb&lt;/font&gt;" style="shape=card;whiteSpace=wrap;html=1;rounded=1;" vertex="1" parent="1">
          <mxGeometry x="99" y="80" width="122" height="70" as="geometry" />
        </mxCell>
        <mxCell id="lquwiNytcV9NUcsQfciu-27" value="" style="edgeStyle=orthogonalEdgeStyle;rounded=0;orthogonalLoop=1;jettySize=auto;html=1;" edge="1" parent="1" source="lquwiNytcV9NUcsQfciu-13" target="lquwiNytcV9NUcsQfciu-2">
          <mxGeometry relative="1" as="geometry">
            <Array as="points">
              <mxPoint x="400" y="248" />
              <mxPoint x="400" y="337" />
            </Array>
          </mxGeometry>
        </mxCell>
        <mxCell id="lquwiNytcV9NUcsQfciu-13" value="" style="rounded=1;whiteSpace=wrap;html=1;fillColor=#bac8d3;strokeColor=#23445d;" vertex="1" parent="1">
          <mxGeometry x="75" y="185" width="310" height="125" as="geometry" />
        </mxCell>
        <mxCell id="lquwiNytcV9NUcsQfciu-12" value="&lt;font face=&quot;Courier New&quot;&gt;Brimr_2024.xlsx&lt;/font&gt;" style="shape=card;whiteSpace=wrap;html=1;rounded=1;" vertex="1" parent="1">
          <mxGeometry x="239" y="80" width="122" height="70" as="geometry" />
        </mxCell>
        <mxCell id="lquwiNytcV9NUcsQfciu-23" value="" style="group" vertex="1" connectable="0" parent="1">
          <mxGeometry x="117.5" y="201.25" width="225" height="92.5" as="geometry" />
        </mxCell>
        <mxCell id="lquwiNytcV9NUcsQfciu-11" value="Network Files" style="swimlane;whiteSpace=wrap;html=1;rounded=1;swimlaneLine=1;glass=0;shadow=0;separatorColor=#000000;" vertex="1" parent="lquwiNytcV9NUcsQfciu-23">
          <mxGeometry width="225" height="92.5" as="geometry" />
        </mxCell>
        <mxCell id="lquwiNytcV9NUcsQfciu-15" value="&lt;font face=&quot;Courier New&quot;&gt;Nodes&lt;/font&gt;" style="shape=card;whiteSpace=wrap;html=1;rounded=1;" vertex="1" parent="lquwiNytcV9NUcsQfciu-23">
          <mxGeometry x="15.580000000000013" y="32.5" width="81.92" height="47" as="geometry" />
        </mxCell>
        <mxCell id="lquwiNytcV9NUcsQfciu-19" value="&lt;font face=&quot;Courier New&quot;&gt;Nodes&lt;/font&gt;" style="shape=card;whiteSpace=wrap;html=1;rounded=1;" vertex="1" parent="lquwiNytcV9NUcsQfciu-23">
          <mxGeometry x="21.580000000000013" y="37.25" width="81.92" height="47" as="geometry" />
        </mxCell>
        <mxCell id="lquwiNytcV9NUcsQfciu-20" value="&lt;font face=&quot;Courier New&quot;&gt;Nodes&lt;/font&gt;" style="shape=card;whiteSpace=wrap;html=1;rounded=1;" vertex="1" parent="lquwiNytcV9NUcsQfciu-23">
          <mxGeometry x="121.5" y="32.5" width="81.92" height="47" as="geometry" />
        </mxCell>
        <mxCell id="lquwiNytcV9NUcsQfciu-21" value="&lt;font face=&quot;Courier New&quot;&gt;Edges&lt;/font&gt;" style="shape=card;whiteSpace=wrap;html=1;rounded=1;" vertex="1" parent="lquwiNytcV9NUcsQfciu-23">
          <mxGeometry x="127.5" y="37.25" width="81.92" height="47" as="geometry" />
        </mxCell>
        <mxCell id="lquwiNytcV9NUcsQfciu-24" value="" style="rounded=1;whiteSpace=wrap;html=1;fillColor=#bac8d3;strokeColor=#23445d;" vertex="1" parent="1">
          <mxGeometry x="75" y="320" width="310" height="125" as="geometry" />
        </mxCell>
        <mxCell id="lquwiNytcV9NUcsQfciu-29" value="" style="edgeStyle=orthogonalEdgeStyle;rounded=0;orthogonalLoop=1;jettySize=auto;html=1;" edge="1" parent="1" source="lquwiNytcV9NUcsQfciu-25" target="lquwiNytcV9NUcsQfciu-28">
          <mxGeometry relative="1" as="geometry" />
        </mxCell>
        <mxCell id="lquwiNytcV9NUcsQfciu-25" value="&lt;font face=&quot;Courier New&quot;&gt;NetCounts.ipynb&lt;/font&gt;" style="shape=card;whiteSpace=wrap;html=1;rounded=1;" vertex="1" parent="1">
          <mxGeometry x="110" y="347.5" width="122" height="70" as="geometry" />
        </mxCell>
        <mxCell id="lquwiNytcV9NUcsQfciu-26" value="" style="edgeStyle=orthogonalEdgeStyle;rounded=0;orthogonalLoop=1;jettySize=auto;html=1;entryX=0.003;entryY=0.617;entryDx=0;entryDy=0;entryPerimeter=0;" edge="1" parent="1" source="lquwiNytcV9NUcsQfciu-11" target="lquwiNytcV9NUcsQfciu-25">
          <mxGeometry relative="1" as="geometry">
            <Array as="points">
              <mxPoint x="230" y="330" />
              <mxPoint x="90" y="330" />
              <mxPoint x="90" y="391" />
            </Array>
          </mxGeometry>
        </mxCell>
        <mxCell id="lquwiNytcV9NUcsQfciu-50" value="" style="edgeStyle=orthogonalEdgeStyle;rounded=0;orthogonalLoop=1;jettySize=auto;html=1;" edge="1" parent="1" source="lquwiNytcV9NUcsQfciu-28">
          <mxGeometry relative="1" as="geometry">
            <mxPoint x="800" y="130" as="targetPoint" />
            <Array as="points">
              <mxPoint x="420" y="383" />
              <mxPoint x="420" y="80" />
              <mxPoint x="780" y="80" />
              <mxPoint x="780" y="130" />
              <mxPoint x="799" y="130" />
            </Array>
          </mxGeometry>
        </mxCell>
        <mxCell id="lquwiNytcV9NUcsQfciu-28" value="&lt;div&gt;&lt;font face=&quot;Courier New&quot;&gt;Network&lt;/font&gt;&lt;/div&gt;&lt;div&gt;&lt;font face=&quot;Courier New&quot;&gt;Statistics&lt;/font&gt;&lt;/div&gt;" style="shape=cylinder3;whiteSpace=wrap;html=1;boundedLbl=1;backgroundOutline=1;size=15;" vertex="1" parent="1">
          <mxGeometry x="273.5" y="343.75" width="87.5" height="77.5" as="geometry" />
        </mxCell>
        <mxCell id="lquwiNytcV9NUcsQfciu-44" value="" style="edgeStyle=orthogonalEdgeStyle;rounded=0;orthogonalLoop=1;jettySize=auto;html=1;endArrow=none;startFill=0;" edge="1" parent="1" source="lquwiNytcV9NUcsQfciu-38">
          <mxGeometry relative="1" as="geometry">
            <mxPoint x="602.4999999999998" y="243.75" as="targetPoint" />
            <Array as="points">
              <mxPoint x="602" y="244" />
            </Array>
          </mxGeometry>
        </mxCell>
        <mxCell id="lquwiNytcV9NUcsQfciu-47" value="&lt;font face=&quot;Courier New&quot;&gt;Basic Protocol 3&lt;/font&gt;" style="rounded=1;whiteSpace=wrap;html=1;fillColor=#b1ddf0;strokeColor=#10739e;" vertex="1" parent="1">
          <mxGeometry x="800" y="29" width="120" height="30" as="geometry" />
        </mxCell>
        <mxCell id="lquwiNytcV9NUcsQfciu-60" value="" style="rounded=1;whiteSpace=wrap;html=1;fillColor=#bac8d3;strokeColor=#23445d;" vertex="1" parent="1">
          <mxGeometry x="75" y="460" width="310" height="125" as="geometry" />
        </mxCell>
        <mxCell id="lquwiNytcV9NUcsQfciu-63" value="" style="edgeStyle=orthogonalEdgeStyle;rounded=0;orthogonalLoop=1;jettySize=auto;html=1;endArrow=none;startFill=1;startArrow=classicThin;strokeColor=default;" edge="1" parent="1" source="lquwiNytcV9NUcsQfciu-61">
          <mxGeometry relative="1" as="geometry">
            <mxPoint x="90" y="390" as="targetPoint" />
          </mxGeometry>
        </mxCell>
        <mxCell id="lquwiNytcV9NUcsQfciu-64" value="" style="rounded=1;whiteSpace=wrap;html=1;" vertex="1" parent="1">
          <mxGeometry x="117.5" y="480" width="92.5" height="90" as="geometry" />
        </mxCell>
        <mxCell id="lquwiNytcV9NUcsQfciu-61" value="" style="shape=image;verticalLabelPosition=bottom;labelBackgroundColor=default;verticalAlign=top;aspect=fixed;imageAspect=0;image=https://cytoscape.org/images/logo/cy3logoOrange.svg;imageBorder=none;perimeterSpacing=0;strokeColor=default;" vertex="1" parent="1">
          <mxGeometry x="117.5" y="482.5" width="85" height="85" as="geometry" />
        </mxCell>
        <mxCell id="lquwiNytcV9NUcsQfciu-65" value="" style="rounded=1;whiteSpace=wrap;html=1;fillColor=#bac8d3;strokeColor=#23445d;" vertex="1" parent="1">
          <mxGeometry x="815" y="199" width="310" height="90" as="geometry" />
        </mxCell>
        <mxCell id="lquwiNytcV9NUcsQfciu-66" value="&lt;div align=&quot;left&quot;&gt;&lt;font face=&quot;Courier New&quot;&gt;&lt;span style=&quot;color: rgb(255, 255, 255);&quot;&gt;&lt;b&gt;neo4j&lt;/b&gt;$ MATCH N RETURN N LIMIT 25&lt;/span&gt;&lt;/font&gt;&lt;/div&gt;" style="rounded=1;whiteSpace=wrap;html=1;strokeColor=light-dark(#000000, #ededed);fillColor=#000000;align=left;" vertex="1" parent="1">
          <mxGeometry x="820" y="207" width="300" height="32" as="geometry" />
        </mxCell>
        <mxCell id="lquwiNytcV9NUcsQfciu-67" value="&lt;div&gt;&lt;font face=&quot;Courier New&quot;&gt;Basic Protocol 4&lt;/font&gt;&lt;/div&gt;" style="rounded=1;whiteSpace=wrap;html=1;fillColor=#b1ddf0;strokeColor=#10739e;" vertex="1" parent="1">
          <mxGeometry x="800" y="320" width="120" height="30" as="geometry" />
        </mxCell>
        <mxCell id="lquwiNytcV9NUcsQfciu-68" value="" style="group" vertex="1" connectable="0" parent="1">
          <mxGeometry x="815" y="79" width="310" height="103.75" as="geometry" />
        </mxCell>
        <mxCell id="lquwiNytcV9NUcsQfciu-49" value="" style="rounded=1;whiteSpace=wrap;html=1;fillColor=#bac8d3;strokeColor=#23445d;" vertex="1" parent="lquwiNytcV9NUcsQfciu-68">
          <mxGeometry width="310" height="103.75" as="geometry" />
        </mxCell>
        <mxCell id="lquwiNytcV9NUcsQfciu-51" value="&lt;div&gt;&lt;font face=&quot;Courier New&quot;&gt;Network&lt;/font&gt;&lt;/div&gt;&lt;div&gt;&lt;font face=&quot;Courier New&quot;&gt;Statistics&lt;/font&gt;&lt;/div&gt;" style="shape=cylinder3;whiteSpace=wrap;html=1;boundedLbl=1;backgroundOutline=1;size=15;" vertex="1" parent="lquwiNytcV9NUcsQfciu-68">
          <mxGeometry x="205" y="13.75" width="87.5" height="77.5" as="geometry" />
        </mxCell>
        <mxCell id="lquwiNytcV9NUcsQfciu-52" value="" style="shape=image;html=1;verticalAlign=top;verticalLabelPosition=bottom;labelBackgroundColor=#ffffff;imageAspect=0;aspect=fixed;image=https://cdn0.iconfinder.com/data/icons/phosphor-thin-vol-2/256/equals-thin-128.png" vertex="1" parent="lquwiNytcV9NUcsQfciu-68">
          <mxGeometry x="128" y="25.5" width="54" height="54" as="geometry" />
        </mxCell>
        <mxCell id="lquwiNytcV9NUcsQfciu-56" value="&lt;b&gt;MeSH&lt;/b&gt;" style="rounded=1;whiteSpace=wrap;html=1;strokeWidth=1;fillColor=light-dark(#f9c354, #ededed);absoluteArcSize=1;" vertex="1" parent="lquwiNytcV9NUcsQfciu-68">
          <mxGeometry x="15" y="13.75" width="67" height="24.25" as="geometry" />
        </mxCell>
        <mxCell id="lquwiNytcV9NUcsQfciu-54" value="&lt;b&gt;Node&lt;/b&gt;" style="rounded=1;whiteSpace=wrap;html=1;strokeWidth=1;fillColor=light-dark(#8dcc93, #ededed);absoluteArcSize=1;" vertex="1" parent="lquwiNytcV9NUcsQfciu-68">
          <mxGeometry x="25" y="20.75" width="67" height="24.25" as="geometry" />
        </mxCell>
        <mxCell id="lquwiNytcV9NUcsQfciu-58" value="&lt;b style=&quot;color: rgb(0, 0, 0);&quot;&gt;Property Key&lt;/b&gt;" style="rounded=0;whiteSpace=wrap;html=1;fillColor=light-dark(#bac8d2, #ededed);strokeWidth=1;strokeColor=light-dark(#000000,#EDEDED);" vertex="1" parent="lquwiNytcV9NUcsQfciu-68">
          <mxGeometry x="15" y="60.5" width="83.5" height="25.75" as="geometry" />
        </mxCell>
        <mxCell id="lquwiNytcV9NUcsQfciu-57" value="&lt;b style=&quot;color: rgb(0, 0, 0);&quot;&gt;Property Key&lt;/b&gt;" style="rounded=0;whiteSpace=wrap;html=1;fillColor=#BAC8D3;strokeWidth=1;strokeColor=light-dark(#000000,#EDEDED);" vertex="1" parent="lquwiNytcV9NUcsQfciu-68">
          <mxGeometry x="21.5" y="65.5" width="83.5" height="25.75" as="geometry" />
        </mxCell>
        <mxCell id="lquwiNytcV9NUcsQfciu-69" value="&lt;div align=&quot;left&quot;&gt;&lt;font face=&quot;Courier New&quot;&gt;&lt;span style=&quot;color: rgb(255, 255, 255);&quot;&gt;&lt;b&gt;neo4j&lt;/b&gt;$ MATCH p=()-[r:Coauthors]-&amp;gt;() &lt;span style=&quot;white-space: pre;&quot;&gt;&#x9;&lt;/span&gt; &lt;span style=&quot;white-space: pre;&quot;&gt;&#x9;&lt;/span&gt;&amp;nbsp;&amp;nbsp; RETURN p LIMIT 25&lt;/span&gt;&lt;/font&gt;&lt;/div&gt;" style="rounded=1;whiteSpace=wrap;html=1;strokeColor=light-dark(#000000, #ededed);fillColor=#000000;align=left;" vertex="1" parent="1">
          <mxGeometry x="820" y="244.5" width="300" height="32" as="geometry" />
        </mxCell>
        <mxCell id="lquwiNytcV9NUcsQfciu-48" value="" style="edgeStyle=orthogonalEdgeStyle;rounded=0;orthogonalLoop=1;jettySize=auto;html=1;" edge="1" parent="1" source="lquwiNytcV9NUcsQfciu-46" target="lquwiNytcV9NUcsQfciu-3">
          <mxGeometry relative="1" as="geometry" />
        </mxCell>
        <mxCell id="lquwiNytcV9NUcsQfciu-91" value="" style="rounded=1;whiteSpace=wrap;html=1;fillColor=#bac8d3;strokeColor=#23445d;" vertex="1" parent="1">
          <mxGeometry x="815" y="365" width="310" height="225" as="geometry" />
        </mxCell>
        <mxCell id="lquwiNytcV9NUcsQfciu-92" value="" style="group" vertex="1" connectable="0" parent="1">
          <mxGeometry x="857.5" y="375" width="225" height="95" as="geometry" />
        </mxCell>
        <mxCell id="lquwiNytcV9NUcsQfciu-93" value="Network Files" style="swimlane;whiteSpace=wrap;html=1;rounded=1;swimlaneLine=1;glass=0;shadow=0;separatorColor=#000000;" vertex="1" parent="lquwiNytcV9NUcsQfciu-92">
          <mxGeometry width="225" height="95" as="geometry" />
        </mxCell>
        <mxCell id="lquwiNytcV9NUcsQfciu-94" value="&lt;font face=&quot;Courier New&quot;&gt;Nodes&lt;/font&gt;" style="shape=card;whiteSpace=wrap;html=1;rounded=1;" vertex="1" parent="lquwiNytcV9NUcsQfciu-92">
          <mxGeometry x="15.580000000000013" y="33.37837837837838" width="81.92" height="48.27027027027027" as="geometry" />
        </mxCell>
        <mxCell id="lquwiNytcV9NUcsQfciu-95" value="&lt;font face=&quot;Courier New&quot;&gt;Nodes&lt;/font&gt;" style="shape=card;whiteSpace=wrap;html=1;rounded=1;" vertex="1" parent="lquwiNytcV9NUcsQfciu-92">
          <mxGeometry x="21.580000000000013" y="38.25675675675676" width="81.92" height="48.27027027027027" as="geometry" />
        </mxCell>
        <mxCell id="lquwiNytcV9NUcsQfciu-96" value="&lt;font face=&quot;Courier New&quot;&gt;Nodes&lt;/font&gt;" style="shape=card;whiteSpace=wrap;html=1;rounded=1;" vertex="1" parent="lquwiNytcV9NUcsQfciu-92">
          <mxGeometry x="121.5" y="33.37837837837838" width="81.92" height="48.27027027027027" as="geometry" />
        </mxCell>
        <mxCell id="lquwiNytcV9NUcsQfciu-97" value="&lt;font face=&quot;Courier New&quot;&gt;Edges&lt;/font&gt;" style="shape=card;whiteSpace=wrap;html=1;rounded=1;" vertex="1" parent="lquwiNytcV9NUcsQfciu-92">
          <mxGeometry x="127.5" y="38.25675675675676" width="81.92" height="48.27027027027027" as="geometry" />
        </mxCell>
        <mxCell id="lquwiNytcV9NUcsQfciu-2" value="" style="rounded=1;whiteSpace=wrap;html=1;fillColor=#dae8fc;strokeColor=#6c8ebf;" vertex="1" parent="1">
          <mxGeometry x="434" y="162" width="340" height="350" as="geometry" />
        </mxCell>
        <mxCell id="lquwiNytcV9NUcsQfciu-46" value="" style="rounded=1;whiteSpace=wrap;html=1;fillColor=#bac8d3;strokeColor=#23445d;" vertex="1" parent="1">
          <mxGeometry x="449" y="181.25" width="310" height="308.75" as="geometry" />
        </mxCell>
        <mxCell id="lquwiNytcV9NUcsQfciu-30" value="&lt;font face=&quot;Courier New&quot;&gt;Basic Protocol 2&lt;/font&gt;" style="rounded=1;whiteSpace=wrap;html=1;fillColor=#b1ddf0;strokeColor=#10739e;" vertex="1" parent="1">
          <mxGeometry x="434" y="140" width="120" height="30" as="geometry" />
        </mxCell>
        <mxCell id="lquwiNytcV9NUcsQfciu-31" value="" style="group" vertex="1" connectable="0" parent="1">
          <mxGeometry x="490" y="200" width="260" height="290" as="geometry" />
        </mxCell>
        <mxCell id="lquwiNytcV9NUcsQfciu-32" value="Network Files" style="swimlane;whiteSpace=wrap;html=1;rounded=1;swimlaneLine=1;glass=0;shadow=0;separatorColor=#000000;" vertex="1" parent="lquwiNytcV9NUcsQfciu-31">
          <mxGeometry width="225" height="100" as="geometry" />
        </mxCell>
        <mxCell id="lquwiNytcV9NUcsQfciu-33" value="&lt;font face=&quot;Courier New&quot;&gt;Nodes&lt;/font&gt;" style="shape=card;whiteSpace=wrap;html=1;rounded=1;" vertex="1" parent="lquwiNytcV9NUcsQfciu-31">
          <mxGeometry x="15.580000000000013" y="32.5" width="81.92" height="47" as="geometry" />
        </mxCell>
        <mxCell id="lquwiNytcV9NUcsQfciu-34" value="&lt;font face=&quot;Courier New&quot;&gt;Nodes&lt;/font&gt;" style="shape=card;whiteSpace=wrap;html=1;rounded=1;" vertex="1" parent="lquwiNytcV9NUcsQfciu-31">
          <mxGeometry x="21.580000000000013" y="37.25" width="81.92" height="47" as="geometry" />
        </mxCell>
        <mxCell id="lquwiNytcV9NUcsQfciu-35" value="&lt;font face=&quot;Courier New&quot;&gt;Nodes&lt;/font&gt;" style="shape=card;whiteSpace=wrap;html=1;rounded=1;" vertex="1" parent="lquwiNytcV9NUcsQfciu-31">
          <mxGeometry x="121.5" y="32.5" width="81.92" height="47" as="geometry" />
        </mxCell>
        <mxCell id="lquwiNytcV9NUcsQfciu-36" value="&lt;font face=&quot;Courier New&quot;&gt;Edges&lt;/font&gt;" style="shape=card;whiteSpace=wrap;html=1;rounded=1;" vertex="1" parent="lquwiNytcV9NUcsQfciu-31">
          <mxGeometry x="127.5" y="37.25" width="81.92" height="47" as="geometry" />
        </mxCell>
        <mxCell id="lquwiNytcV9NUcsQfciu-103" value="" style="edgeStyle=orthogonalEdgeStyle;rounded=0;orthogonalLoop=1;jettySize=auto;html=1;endArrow=none;startFill=0;" edge="1" parent="1">
          <mxGeometry relative="1" as="geometry">
            <mxPoint x="645.0799999999999" y="337" as="sourcePoint" />
            <mxPoint x="602" y="337" as="targetPoint" />
          </mxGeometry>
        </mxCell>
        <mxCell id="lquwiNytcV9NUcsQfciu-38" value="&lt;font face=&quot;Courier New&quot;&gt;import_csv.py&lt;/font&gt;" style="shape=card;whiteSpace=wrap;html=1;rounded=1;" vertex="1" parent="1">
          <mxGeometry x="643.08" y="307" width="106.92" height="60" as="geometry" />
        </mxCell>
        <mxCell id="lquwiNytcV9NUcsQfciu-41" value="&lt;font face=&quot;Courier New&quot;&gt;Neo4J Database&lt;/font&gt;" style="shape=cylinder3;whiteSpace=wrap;html=1;boundedLbl=1;backgroundOutline=1;size=15;" vertex="1" parent="1">
          <mxGeometry x="522.5" y="383.75" width="160" height="80" as="geometry" />
        </mxCell>
        <mxCell id="lquwiNytcV9NUcsQfciu-42" value="" style="edgeStyle=orthogonalEdgeStyle;rounded=0;orthogonalLoop=1;jettySize=auto;html=1;" edge="1" parent="1" source="lquwiNytcV9NUcsQfciu-32" target="lquwiNytcV9NUcsQfciu-41">
          <mxGeometry relative="1" as="geometry" />
        </mxCell>
        <mxCell id="lquwiNytcV9NUcsQfciu-109" value="" style="edgeStyle=orthogonalEdgeStyle;rounded=0;orthogonalLoop=1;jettySize=auto;html=1;" edge="1" parent="1" source="lquwiNytcV9NUcsQfciu-104" target="lquwiNytcV9NUcsQfciu-107">
          <mxGeometry relative="1" as="geometry">
            <Array as="points">
              <mxPoint x="990" y="523" />
              <mxPoint x="990" y="523" />
            </Array>
          </mxGeometry>
        </mxCell>
        <mxCell id="lquwiNytcV9NUcsQfciu-104" value="&lt;font face=&quot;Courier New&quot;&gt;setting_up_ui.ipynb&lt;/font&gt;" style="shape=card;whiteSpace=wrap;html=1;rounded=1;" vertex="1" parent="1">
          <mxGeometry x="820" y="496" width="162.5" height="58" as="geometry" />
        </mxCell>
        <mxCell id="lquwiNytcV9NUcsQfciu-107" value="&lt;font face=&quot;Courier New&quot;&gt;schema.json&lt;/font&gt;" style="shape=card;whiteSpace=wrap;html=1;rounded=1;" vertex="1" parent="1">
          <mxGeometry x="1010" y="493.5" width="100" height="58" as="geometry" />
        </mxCell>
        <mxCell id="lquwiNytcV9NUcsQfciu-108" value="" style="rounded=1;whiteSpace=wrap;html=1;fillColor=#dae8fc;strokeColor=#6c8ebf;" vertex="1" parent="1">
          <mxGeometry x="1170" y="30" width="360" height="590" as="geometry" />
        </mxCell>
        <mxCell id="lquwiNytcV9NUcsQfciu-114" value="" style="edgeStyle=orthogonalEdgeStyle;rounded=0;orthogonalLoop=1;jettySize=auto;html=1;" edge="1" parent="1" source="lquwiNytcV9NUcsQfciu-93" target="lquwiNytcV9NUcsQfciu-104">
          <mxGeometry relative="1" as="geometry">
            <Array as="points">
              <mxPoint x="970" y="480" />
              <mxPoint x="901" y="480" />
            </Array>
          </mxGeometry>
        </mxCell>
        <mxCell id="lquwiNytcV9NUcsQfciu-117" value="&lt;div&gt;&lt;font face=&quot;Courier New&quot;&gt;Basic Protocol 5&lt;/font&gt;&lt;/div&gt;" style="rounded=1;whiteSpace=wrap;html=1;fillColor=#b1ddf0;strokeColor=#10739e;" vertex="1" parent="1">
          <mxGeometry x="1170" y="20" width="120" height="30" as="geometry" />
        </mxCell>
        <mxCell id="lquwiNytcV9NUcsQfciu-122" value="" style="edgeStyle=orthogonalEdgeStyle;rounded=0;orthogonalLoop=1;jettySize=auto;html=1;" edge="1" parent="1" source="lquwiNytcV9NUcsQfciu-119" target="lquwiNytcV9NUcsQfciu-121">
          <mxGeometry relative="1" as="geometry" />
        </mxCell>
        <mxCell id="lquwiNytcV9NUcsQfciu-119" value="" style="rounded=1;whiteSpace=wrap;html=1;fillColor=#bac8d3;strokeColor=#23445d;" vertex="1" parent="1">
          <mxGeometry x="1195" y="59" width="310" height="111" as="geometry" />
        </mxCell>
        <mxCell id="lquwiNytcV9NUcsQfciu-118" value="&lt;font face=&quot;Courier New&quot;&gt;schema.json&lt;/font&gt;" style="shape=card;whiteSpace=wrap;html=1;rounded=1;" vertex="1" parent="1">
          <mxGeometry x="1215" y="86" width="100" height="58" as="geometry" />
        </mxCell>
        <mxCell id="lquwiNytcV9NUcsQfciu-120" value="&lt;font face=&quot;Courier New&quot;&gt;Neo4J Database&lt;/font&gt;" style="shape=cylinder3;whiteSpace=wrap;html=1;boundedLbl=1;backgroundOutline=1;size=15;" vertex="1" parent="1">
          <mxGeometry x="1335" y="69" width="160" height="80" as="geometry" />
        </mxCell>
        <mxCell id="lquwiNytcV9NUcsQfciu-121" value="" style="rounded=1;whiteSpace=wrap;html=1;fillColor=#bac8d3;strokeColor=#23445d;" vertex="1" parent="1">
          <mxGeometry x="1195" y="207" width="310" height="393" as="geometry" />
        </mxCell>
        <mxCell id="lquwiNytcV9NUcsQfciu-125" value="" style="group" vertex="1" connectable="0" parent="1">
          <mxGeometry x="1230" y="244.5" width="240" height="35.5" as="geometry" />
        </mxCell>
        <mxCell id="lquwiNytcV9NUcsQfciu-123" value="&lt;font face=&quot;Courier New&quot;&gt;Single Term Search&lt;/font&gt;" style="rounded=1;whiteSpace=wrap;html=1;" vertex="1" parent="lquwiNytcV9NUcsQfciu-125">
          <mxGeometry width="240" height="35.5" as="geometry" />
        </mxCell>
        <mxCell id="lquwiNytcV9NUcsQfciu-124" value="" style="sketch=0;pointerEvents=1;shadow=0;dashed=0;html=1;strokeColor=none;fillColor=#505050;labelPosition=center;verticalLabelPosition=bottom;verticalAlign=top;outlineConnect=0;align=center;shape=mxgraph.office.concepts.search;" vertex="1" parent="lquwiNytcV9NUcsQfciu-125">
          <mxGeometry x="200" y="5.3799999999999955" width="25" height="24.75" as="geometry" />
        </mxCell>
        <mxCell id="lquwiNytcV9NUcsQfciu-126" value="" style="group" vertex="1" connectable="0" parent="1">
          <mxGeometry x="1230" y="284.5" width="240" height="35.5" as="geometry" />
        </mxCell>
        <mxCell id="lquwiNytcV9NUcsQfciu-127" value="&lt;font face=&quot;Courier New&quot;&gt;Two Term Search&lt;/font&gt;" style="rounded=1;whiteSpace=wrap;html=1;" vertex="1" parent="lquwiNytcV9NUcsQfciu-126">
          <mxGeometry width="240" height="35.5" as="geometry" />
        </mxCell>
        <mxCell id="lquwiNytcV9NUcsQfciu-128" value="" style="sketch=0;pointerEvents=1;shadow=0;dashed=0;html=1;strokeColor=none;fillColor=#505050;labelPosition=center;verticalLabelPosition=bottom;verticalAlign=top;outlineConnect=0;align=center;shape=mxgraph.office.concepts.search;" vertex="1" parent="lquwiNytcV9NUcsQfciu-126">
          <mxGeometry x="200" y="5.3799999999999955" width="25" height="24.75" as="geometry" />
        </mxCell>
        <mxCell id="lquwiNytcV9NUcsQfciu-129" value="" style="group" vertex="1" connectable="0" parent="1">
          <mxGeometry x="1230" y="324.25" width="240" height="35.5" as="geometry" />
        </mxCell>
        <mxCell id="lquwiNytcV9NUcsQfciu-130" value="&lt;font face=&quot;Courier New&quot;&gt;Shortest Path Search&lt;/font&gt;" style="rounded=1;whiteSpace=wrap;html=1;" vertex="1" parent="lquwiNytcV9NUcsQfciu-129">
          <mxGeometry width="240" height="35.5" as="geometry" />
        </mxCell>
        <mxCell id="lquwiNytcV9NUcsQfciu-131" value="" style="sketch=0;pointerEvents=1;shadow=0;dashed=0;html=1;strokeColor=none;fillColor=#505050;labelPosition=center;verticalLabelPosition=bottom;verticalAlign=top;outlineConnect=0;align=center;shape=mxgraph.office.concepts.search;" vertex="1" parent="lquwiNytcV9NUcsQfciu-129">
          <mxGeometry x="200" y="5.3799999999999955" width="25" height="24.75" as="geometry" />
        </mxCell>
        <mxCell id="lquwiNytcV9NUcsQfciu-132" value="" style="rounded=1;whiteSpace=wrap;html=1;" vertex="1" parent="1">
          <mxGeometry x="1230" y="373.5" width="240" height="196.5" as="geometry" />
        </mxCell>
        <mxCell id="lquwiNytcV9NUcsQfciu-133" value="&lt;font face=&quot;Courier New&quot;&gt;Optional&lt;/font&gt;" style="rounded=1;whiteSpace=wrap;html=1;fillColor=#b1ddf0;strokeColor=#10739e;" vertex="1" parent="1">
          <mxGeometry x="250" y="452.5" width="120" height="30" as="geometry" />
        </mxCell>
      </root>
    </mxGraphModel>
  </diagram>
</mxfile>
